<svg xmlns="http://www.w3.org/2000/svg" style="background-color:#F7F9FA;" viewBox="-1146 -503 2368 956" width="2368px" height="956px" version="1.1" xmlns:xlink="http://www.w3.org/1999/xlink"><defs><style>@font-face{
    font-family:"DIN Next";
    font-weight: 400;
    src:url("https://whimsical.com/fonts/139e8e25-0eea-4cb4-a5d4-79048803e73d.eot?#iefix");
    src:url("https://whimsical.com/fonts/139e8e25-0eea-4cb4-a5d4-79048803e73d.eot?#iefix") format("eot"),url("https://whimsical.com/fonts/094b15e3-94bd-435b-a595-d40edfde661a.woff2") format("woff2"),url("https://whimsical.com/fonts/7e5fbe11-4858-4bd1-9ec6-a1d9f9d227aa.woff") format("woff"),url("https://whimsical.com/fonts/0f11eff9-9f05-46f5-9703-027c510065d7.ttf") format("truetype"),url("https://whimsical.com/fonts/48b61978-3f30-4274-823c-5cdcd1876918.svg#48b61978-3f30-4274-823c-5cdcd1876918") format("svg");
}
@font-face{
    font-family:"DIN Next";
    font-weight: 400;
    font-style: italic;
    src:url("https://whimsical.com/fonts/df24d5e8-5087-42fd-99b1-b16042d666c8.eot?#iefix");
    src:url("https://whimsical.com/fonts/df24d5e8-5087-42fd-99b1-b16042d666c8.eot?#iefix") format("eot"),url("https://whimsical.com/fonts/46251881-ffe9-4bfb-99c7-d6ce3bebaf3e.woff2") format("woff2"),url("https://whimsical.com/fonts/790ebbf2-62c5-4a32-946f-99d405f9243e.woff") format("woff"),url("https://whimsical.com/fonts/d28199e6-0f4a-42df-97f4-606701c6f75a.ttf") format("truetype"),url("https://whimsical.com/fonts/37a462c0-d86e-492c-b9ab-35e6bd417f6c.svg#37a462c0-d86e-492c-b9ab-35e6bd417f6c") format("svg");
}
@font-face{
    font-weight: 500;
    font-family:"DIN Next";
    src:url("https://whimsical.com/fonts/c5b058fc-55ce-4e06-a175-5c7d9a7e90f4.eot?#iefix");
    src:url("https://whimsical.com/fonts/c5b058fc-55ce-4e06-a175-5c7d9a7e90f4.eot?#iefix") format("eot"),url("https://whimsical.com/fonts/7b29ae40-30ff-4f99-a2b9-cde88669fa2f.woff2") format("woff2"),url("https://whimsical.com/fonts/bf73077c-e354-4562-a085-f4703eb1d653.woff") format("woff"),url("https://whimsical.com/fonts/0ffa6947-5317-4d07-b525-14d08a028821.ttf") format("truetype"),url("https://whimsical.com/fonts/9e423e45-5450-4991-a157-dbe6cf61eb4e.svg#9e423e45-5450-4991-a157-dbe6cf61eb4e") format("svg");
}
@font-face{
    font-family:"DIN Next";
    font-weight: 500;
    font-style: italic;
    src:url("https://whimsical.com/fonts/9897c008-fd65-48a4-afc7-36de2fea97b9.eot?#iefix");
    src:url("https://whimsical.com/fonts/9897c008-fd65-48a4-afc7-36de2fea97b9.eot?#iefix") format("eot"),url("https://whimsical.com/fonts/c7717981-647d-4b76-8817-33062e42d11f.woff2") format("woff2"),url("https://whimsical.com/fonts/b852cd4c-1255-40b1-a2be-73a9105b0155.woff") format("woff"),url("https://whimsical.com/fonts/821b00ad-e741-4e2d-af1a-85594367c8a2.ttf") format("truetype"),url("https://whimsical.com/fonts/d3e3b689-a6b0-45f2-b279-f5e194f87409.svg#d3e3b689-a6b0-45f2-b279-f5e194f87409") format("svg");
}
@font-face{
    font-weight: 700;
    font-family:"DIN Next";
    src:url("https://whimsical.com/fonts/81cd3b08-fd39-4ae3-8d05-9d24709eba84.eot?#iefix");
    src:url("https://whimsical.com/fonts/81cd3b08-fd39-4ae3-8d05-9d24709eba84.eot?#iefix") format("eot"),url("https://whimsical.com/fonts/31704504-4671-47a6-a61e-397f07410d91.woff2") format("woff2"),url("https://whimsical.com/fonts/b8a280da-481f-44a0-8d9c-1bc64bd7227c.woff") format("woff"),url("https://whimsical.com/fonts/276d122a-0fab-447b-9fc0-5d7fb0eafce2.ttf") format("truetype"),url("https://whimsical.com/fonts/8fb8273a-8213-4928-808b-b5bfaf3fd7e9.svg#8fb8273a-8213-4928-808b-b5bfaf3fd7e9") format("svg");
}
@font-face{
    font-family:"DIN Next";
    font-weight: 700;
    font-style: italic;
    src:url("https://whimsical.com/fonts/00cc6df3-ed32-4004-8dd8-1c576600a408.eot?#iefix");
    src:url("https://whimsical.com/fonts/00cc6df3-ed32-4004-8dd8-1c576600a408.eot?#iefix") format("eot"),url("https://whimsical.com/fonts/4132c4c8-680c-4d6d-9251-a2da38503bbd.woff2") format("woff2"),url("https://whimsical.com/fonts/366401fe-6df4-47be-8f55-8a411cff0dd2.woff") format("woff"),url("https://whimsical.com/fonts/dbe4f7ba-fc16-44a6-a577-571620e9edaf.ttf") format("truetype"),url("https://whimsical.com/fonts/f874edca-ee87-4ccf-8b1d-921fbc3c1c36.svg#f874edca-ee87-4ccf-8b1d-921fbc3c1c36") format("svg");
}
* {-webkit-font-smoothing: auto; -moz-osx-font-smoothing: auto;}</style><filter id="fill-shadow" x="-100%" y="-100%" width="300%" height="300%"><feGaussianBlur in="SourceAlpha" stdDeviation="6" /><feOffset result="offsetblur" dx="0" dy="2" /><feComponentTransfer result="s0"><feFuncA type="linear" slope="0.16" /></feComponentTransfer><feMerge><feMergeNode in="s0" /><feMergeNode in="SourceGraphic" /></feMerge></filter><filter id="fill-light-shadow" x="-100%" y="-100%" width="300%" height="300%"><feGaussianBlur in="SourceAlpha" stdDeviation="6" /><feOffset result="offsetblur" dx="0" dy="2" /><feComponentTransfer result="s0"><feFuncA type="linear" slope="0.04" /></feComponentTransfer><feMerge><feMergeNode in="s0" /><feMergeNode in="SourceGraphic" /></feMerge></filter><filter id="image-shadow" x="-100%" y="-100%" width="300%" height="300%"><feGaussianBlur in="SourceAlpha" stdDeviation="8" /><feOffset result="offsetblur" dx="0" dy="3" /><feComponentTransfer result="s0"><feFuncA type="linear" slope="0.06" /></feComponentTransfer><feMerge><feMergeNode in="s0" /><feMergeNode in="SourceGraphic" /></feMerge></filter><filter id="frame-shadow" x="-100%" y="-100%" width="300%" height="300%"><feGaussianBlur in="SourceAlpha" stdDeviation="8" /><feOffset result="offsetblur" dx="0" dy="3" /><feComponentTransfer result="s0"><feFuncA type="linear" slope="0.06" /></feComponentTransfer><feMerge><feMergeNode in="s0" /><feMergeNode in="SourceGraphic" /></feMerge></filter><filter id="badge-shadow" x="-100%" y="-100%" width="300%" height="300%"><feGaussianBlur in="SourceAlpha" stdDeviation="6" /><feOffset result="offsetblur" dx="0" dy="2" /><feComponentTransfer result="s0"><feFuncA type="linear" slope="0.08" /></feComponentTransfer><feMerge><feMergeNode in="s0" /><feMergeNode in="SourceGraphic" /></feMerge></filter></defs><g><g><g><g class="mindmap"><path fill="none" stroke="#bd34d1" stroke-linecap="round" stroke-linejoin="round" stroke-width="4" d="M 175 -7 c 34.4722 0 33.6518 0 96 0" /><g><text font-family="DIN Next" font-size="21px" font-style="normal" font-weight="normal" fill="#293845" x="280" y="-21" height="28" xmlns:xml="http://www.w3.org/XML/1998/namespace" xml:space="preserve" width="43"><tspan style="white-space:pre;" text-anchor="start" x="280" y="0">intro</tspan></text></g></g><g><g><g class="mindmap"><path fill="none" stroke="#bd34d1" stroke-linecap="round" stroke-linejoin="round" stroke-width="4" d="M 332 -7 h 10 c 40 0 36 -336 76 -336 h 10" /><g><text font-family="DIN Next" font-size="18px" font-style="normal" font-weight="normal" fill="#293845" x="437" y="-355" height="24" xmlns:xml="http://www.w3.org/XML/1998/namespace" xml:space="preserve" width="93"><tspan style="white-space:pre;" text-anchor="start" x="437" y="-337">🙇🏽‍♂️ O que é?</tspan></text></g></g><g><g><g class="mindmap"><path fill="none" stroke="#bd34d1" stroke-linecap="round" stroke-linejoin="round" stroke-width="4" d="M 539 -343 h 10 c 40 0 36 -24 76 -24 h 10" /><g><text font-family="DIN Next" font-size="18px" font-style="normal" font-weight="normal" fill="#293845" x="644" y="-379" height="24" xmlns:xml="http://www.w3.org/XML/1998/namespace" xml:space="preserve" width="183"><tspan style="white-space:pre;" text-anchor="start" x="644" y="-361">JS Runtime Enviroment</tspan></text></g></g></g><g><g class="mindmap"><path fill="none" stroke="#bd34d1" stroke-linecap="round" stroke-linejoin="round" stroke-width="4" d="M 539 -343 h 10 c 40 0 36 24 76 24 h 10" /><g><text font-family="DIN Next" font-size="18px" font-style="normal" font-weight="normal" fill="#293845" x="644" y="-331" height="24" xmlns:xml="http://www.w3.org/XML/1998/namespace" xml:space="preserve" width="247"><tspan style="white-space:pre;" text-anchor="start" x="644" y="-313">!= Framework &amp;&amp; != Linguagem</tspan></text></g></g></g></g></g><g><g class="mindmap"><path fill="none" stroke="#bd34d1" stroke-linecap="round" stroke-linejoin="round" stroke-width="4" d="M 332 -7 h 10 c 40 0 36 -120 76 -120 h 10" /><g><text font-family="DIN Next" font-size="18px" font-style="normal" font-weight="normal" fill="#293845" x="437" y="-139" height="24" xmlns:xml="http://www.w3.org/XML/1998/namespace" xml:space="preserve" width="151"><tspan style="white-space:pre;" text-anchor="start" x="437" y="-121">🤔 Para que serve?</tspan></text></g></g><g><g><g class="mindmap"><path fill="none" stroke="#bd34d1" stroke-linecap="round" stroke-linejoin="round" stroke-width="4" d="M 597 -127 h 10 c 40 0 36 -144 76 -144 h 10" /><g><text font-family="DIN Next" font-size="18px" font-style="normal" font-weight="normal" fill="#293845" x="702" y="-283" height="24" xmlns:xml="http://www.w3.org/XML/1998/namespace" xml:space="preserve" width="67"><tspan style="white-space:pre;" text-anchor="start" x="702" y="-265">Backend</tspan></text></g></g></g><g><g class="mindmap"><path fill="none" stroke="#bd34d1" stroke-linecap="round" stroke-linejoin="round" stroke-width="4" d="M 597 -127 h 10 c 40 0 36 -96 76 -96 h 10" /><g><text font-family="DIN Next" font-size="18px" font-style="normal" font-weight="normal" fill="#293845" x="702" y="-235" height="24" xmlns:xml="http://www.w3.org/XML/1998/namespace" xml:space="preserve" width="71"><tspan style="white-space:pre;" text-anchor="start" x="702" y="-217">Frontend</tspan></text></g></g></g><g><g class="mindmap"><path fill="none" stroke="#bd34d1" stroke-linecap="round" stroke-linejoin="round" stroke-width="4" d="M 597 -127 h 10 c 40 0 36 -48 76 -48 h 10" /><g><text font-family="DIN Next" font-size="18px" font-style="normal" font-weight="normal" fill="#293845" x="702" y="-187" height="24" xmlns:xml="http://www.w3.org/XML/1998/namespace" xml:space="preserve" width="113"><tspan style="white-space:pre;" text-anchor="start" x="702" y="-169">Micro serviços</tspan></text></g></g></g><g><g class="mindmap"><path fill="none" stroke="#bd34d1" stroke-linecap="round" stroke-linejoin="round" stroke-width="4" d="M 597 -127 h 10 c 40 0 36 0 76 0 h 10" /><g><text font-family="DIN Next" font-size="18px" font-style="normal" font-weight="normal" fill="#293845" x="702" y="-139" height="24" xmlns:xml="http://www.w3.org/XML/1998/namespace" xml:space="preserve" width="169"><tspan style="white-space:pre;" text-anchor="start" x="702" y="-121">Scripts e Automações</tspan></text></g></g></g><g><g class="mindmap"><path fill="none" stroke="#bd34d1" stroke-linecap="round" stroke-linejoin="round" stroke-width="4" d="M 597 -127 h 10 c 40 0 36 96 76 96 h 10" /><g><text font-family="DIN Next" font-size="18px" font-style="normal" font-weight="normal" fill="#293845" x="702" y="-43" height="24" xmlns:xml="http://www.w3.org/XML/1998/namespace" xml:space="preserve" width="27"><tspan style="white-space:pre;" text-anchor="start" x="702" y="-25">API</tspan></text></g></g><g><g><g class="mindmap"><path fill="none" stroke="#bd34d1" stroke-linecap="round" stroke-linejoin="round" stroke-width="4" d="M 738 -31 h 10 c 40 0 36 -48 76 -48 h 10" /><g><text font-family="DIN Next" font-size="18px" font-style="normal" font-weight="normal" fill="#293845" x="843" y="-91" height="24" xmlns:xml="http://www.w3.org/XML/1998/namespace" xml:space="preserve" width="34"><tspan style="white-space:pre;" text-anchor="start" x="843" y="-73">Web</tspan></text></g></g></g><g><g class="mindmap"><path fill="none" stroke="#bd34d1" stroke-linecap="round" stroke-linejoin="round" stroke-width="4" d="M 738 -31 h 10 c 40 0 36 0 76 0 h 10" /><g><text font-family="DIN Next" font-size="18px" font-style="normal" font-weight="normal" fill="#293845" x="843" y="-43" height="24" xmlns:xml="http://www.w3.org/XML/1998/namespace" xml:space="preserve" width="52"><tspan style="white-space:pre;" text-anchor="start" x="843" y="-25">Mobile</tspan></text></g></g></g><g><g class="mindmap"><path fill="none" stroke="#bd34d1" stroke-linecap="round" stroke-linejoin="round" stroke-width="4" d="M 738 -31 h 10 c 40 0 36 48 76 48 h 10" /><g><text font-family="DIN Next" font-size="18px" font-style="normal" font-weight="normal" fill="#293845" x="843" y="5" height="24" xmlns:xml="http://www.w3.org/XML/1998/namespace" xml:space="preserve" width="64"><tspan style="white-space:pre;" text-anchor="start" x="843" y="23">Desktop</tspan></text></g></g></g></g></g></g></g><g><g class="mindmap"><path fill="none" stroke="#bd34d1" stroke-linecap="round" stroke-linejoin="round" stroke-width="4" d="M 332 -7 h 10 c 40 0 36 216 76 216 h 10" /><g><text font-family="DIN Next" font-size="18px" font-style="normal" font-weight="normal" fill="#293845" x="437" y="197" height="24" xmlns:xml="http://www.w3.org/XML/1998/namespace" xml:space="preserve" width="112"><tspan style="white-space:pre;" text-anchor="start" x="437" y="215">🏃🏽‍♂️Vantagens?</tspan></text></g></g><g><g><g class="mindmap"><path fill="none" stroke="#bd34d1" stroke-linecap="round" stroke-linejoin="round" stroke-width="4" d="M 558 209 h 10 c 40 0 36 -120 76 -120 h 10" /><g><text font-family="DIN Next" font-size="18px" font-style="normal" font-weight="normal" fill="#293845" x="663" y="77" height="24" xmlns:xml="http://www.w3.org/XML/1998/namespace" xml:space="preserve" width="54"><tspan style="white-space:pre;" text-anchor="start" x="663" y="95">Rápido</tspan></text></g></g><g><g><g class="mindmap"><path fill="none" stroke="#bd34d1" stroke-linecap="round" stroke-linejoin="round" stroke-width="4" d="M 726 89 h 10 c 40 0 36 -24 76 -24 h 10" /><g><text font-family="DIN Next" font-size="18px" font-style="normal" font-weight="normal" fill="#293845" x="831" y="53" height="24" xmlns:xml="http://www.w3.org/XML/1998/namespace" xml:space="preserve" width="73"><tspan style="white-space:pre;" text-anchor="start" x="831" y="71">Execução</tspan></text></g></g></g><g><g class="mindmap"><path fill="none" stroke="#bd34d1" stroke-linecap="round" stroke-linejoin="round" stroke-width="4" d="M 726 89 h 10 c 40 0 36 24 76 24 h 10" /><g><text font-family="DIN Next" font-size="18px" font-style="normal" font-weight="normal" fill="#293845" x="831" y="101" height="24" xmlns:xml="http://www.w3.org/XML/1998/namespace" xml:space="preserve" width="79"><tspan style="white-space:pre;" text-anchor="start" x="831" y="119">Prototipar</tspan></text></g></g></g></g></g><g><g class="mindmap"><path fill="none" stroke="#bd34d1" stroke-linecap="round" stroke-linejoin="round" stroke-width="4" d="M 558 209 h 10 c 40 0 36 -48 76 -48 h 10" /><g><text font-family="DIN Next" font-size="18px" font-style="normal" font-weight="normal" fill="#293845" x="663" y="149" height="24" xmlns:xml="http://www.w3.org/XML/1998/namespace" xml:space="preserve" width="147"><tspan style="white-space:pre;" text-anchor="start" x="663" y="167">Alta escalabilidade</tspan></text></g></g></g><g><g class="mindmap"><path fill="none" stroke="#bd34d1" stroke-linecap="round" stroke-linejoin="round" stroke-width="4" d="M 558 209 h 10 c 40 0 36 24 76 24 h 10" /><g><text font-family="DIN Next" font-size="18px" font-style="normal" font-weight="normal" fill="#293845" x="663" y="221" height="24" xmlns:xml="http://www.w3.org/XML/1998/namespace" xml:space="preserve" width="155"><tspan style="white-space:pre;" text-anchor="start" x="663" y="239">Aplicações de ponta</tspan></text></g></g><g><g><g class="mindmap"><path fill="none" stroke="#bd34d1" stroke-linecap="round" stroke-linejoin="round" stroke-width="4" d="M 827 233 h 10 c 40 0 36 0 76 0 h 10" /><g><text font-family="DIN Next" font-size="18px" font-style="normal" font-weight="normal" fill="#293845" x="932" y="221" height="24" xmlns:xml="http://www.w3.org/XML/1998/namespace" xml:space="preserve" width="104"><tspan style="white-space:pre;" text-anchor="start" x="932" y="239">Casos de Uso</tspan></text></g></g><g><g><g class="mindmap"><path fill="none" stroke="#bd34d1" stroke-linecap="round" stroke-linejoin="round" stroke-width="4" d="M 1045 233 h 10 c 40 0 36 -24 76 -24 h 10" /><g><text font-family="DIN Next" font-size="18px" font-style="normal" font-weight="normal" fill="#293845" x="1150" y="197" height="24" xmlns:xml="http://www.w3.org/XML/1998/namespace" xml:space="preserve" width="51"><tspan style="white-space:pre;" text-anchor="start" x="1150" y="215">Netflix</tspan></text></g></g></g><g><g class="mindmap"><path fill="none" stroke="#bd34d1" stroke-linecap="round" stroke-linejoin="round" stroke-width="4" d="M 1045 233 h 10 c 40 0 36 24 76 24 h 10" /><g><text font-family="DIN Next" font-size="18px" font-style="normal" font-weight="normal" fill="#293845" x="1150" y="245" height="24" xmlns:xml="http://www.w3.org/XML/1998/namespace" xml:space="preserve" width="53"><tspan style="white-space:pre;" text-anchor="start" x="1150" y="263">Paypal</tspan></text></g></g></g></g></g></g></g><g><g class="mindmap"><path fill="none" stroke="#bd34d1" stroke-linecap="round" stroke-linejoin="round" stroke-width="4" d="M 558 209 h 10 c 40 0 36 96 76 96 h 10" /><g><text font-family="DIN Next" font-size="18px" font-style="normal" font-weight="normal" fill="#293845" x="663" y="293" height="24" xmlns:xml="http://www.w3.org/XML/1998/namespace" xml:space="preserve" width="204"><tspan style="white-space:pre;" text-anchor="start" x="663" y="311">Ecosistema Gigante (NPM)</tspan></text></g></g></g><g><g class="mindmap"><path fill="none" stroke="#bd34d1" stroke-linecap="round" stroke-linejoin="round" stroke-width="4" d="M 558 209 h 10 c 40 0 36 144 76 144 h 10" /><g><text font-family="DIN Next" font-size="18px" font-style="normal" font-weight="normal" fill="#293845" x="663" y="341" height="24" xmlns:xml="http://www.w3.org/XML/1998/namespace" xml:space="preserve" width="116"><tspan style="white-space:pre;" text-anchor="start" x="663" y="359">JS Everywhere</tspan></text></g></g></g></g></g></g></g><g><g class="mindmap"><path fill="none" stroke="#2c88d9" stroke-linecap="round" stroke-linejoin="round" stroke-width="4" d="M 50.122 -43 c -33.1874 -53.0677 -37.6085 -162 -98.122 -162" /><g><text font-family="DIN Next" font-size="21px" font-style="normal" font-weight="normal" fill="#293845" x="-224" y="-219" height="28" xmlns:xml="http://www.w3.org/XML/1998/namespace" xml:space="preserve" width="167"><tspan style="white-space:pre;" text-anchor="start" x="-224" y="-198">⚙️Como funciona?</tspan></text></g></g><g><g><g class="mindmap"><path fill="none" stroke="#2c88d9" stroke-linecap="round" stroke-linejoin="round" stroke-width="4" d="M -233 -205 h -10 c -40 0 -36 -192 -76 -192 h -10" /><g><text font-family="DIN Next" font-size="18px" font-style="normal" font-weight="normal" fill="#293845" x="-400" y="-409" height="24" xmlns:xml="http://www.w3.org/XML/1998/namespace" xml:space="preserve" width="62"><tspan style="white-space:pre;" text-anchor="start" x="-400" y="-391">Engines</tspan></text></g></g><g><g><g class="mindmap"><path fill="none" stroke="#2c88d9" stroke-linecap="round" stroke-linejoin="round" stroke-width="4" d="M -409 -397 h -10 c -40 0 -36 -48 -76 -48 h -10" /><g><text font-family="DIN Next" font-size="18px" font-style="normal" font-weight="normal" fill="#293845" x="-622" y="-457" height="24" xmlns:xml="http://www.w3.org/XML/1998/namespace" xml:space="preserve" width="108"><tspan style="white-space:pre;" text-anchor="start" x="-622" y="-439">Chakra (Edge)</tspan></text></g></g></g><g><g class="mindmap"><path fill="none" stroke="#2c88d9" stroke-linecap="round" stroke-linejoin="round" stroke-width="4" d="M -409 -397 h -10 c -40 0 -36 0 -76 0 h -10" /><g><text font-family="DIN Next" font-size="18px" font-style="normal" font-weight="normal" fill="#293845" x="-694" y="-409" height="24" xmlns:xml="http://www.w3.org/XML/1998/namespace" xml:space="preserve" width="180"><tspan style="white-space:pre;" text-anchor="start" x="-694" y="-391">SpiderMonkey (Firefox)</tspan></text></g></g></g><g><g class="mindmap"><path fill="none" stroke="#2c88d9" stroke-linecap="round" stroke-linejoin="round" stroke-width="4" d="M -409 -397 h -10 c -40 0 -36 48 -76 48 h -10" /><g><text font-family="DIN Next" font-size="18px" font-style="normal" font-weight="normal" fill="#293845" x="-610" y="-361" height="24" xmlns:xml="http://www.w3.org/XML/1998/namespace" xml:space="preserve" width="96"><tspan style="white-space:pre;" text-anchor="start" x="-610" y="-343">V8 (Chrome)</tspan></text></g></g></g></g></g><g><g class="mindmap"><path fill="none" stroke="#2c88d9" stroke-linecap="round" stroke-linejoin="round" stroke-width="4" d="M -233 -205 h -10 c -40 0 -36 -24 -76 -24 h -10" /><g><text font-family="DIN Next" font-size="18px" font-style="normal" font-weight="normal" fill="#293845" x="-422" y="-241" height="24" xmlns:xml="http://www.w3.org/XML/1998/namespace" xml:space="preserve" width="84"><tspan style="white-space:pre;" text-anchor="start" x="-422" y="-223">Ambientes</tspan></text></g></g><g><g><g class="mindmap"><path fill="none" stroke="#2c88d9" stroke-linecap="round" stroke-linejoin="round" stroke-width="4" d="M -431 -229 h -10 c -40 0 -36 -72 -76 -72 h -10" /><g><text font-family="DIN Next" font-size="18px" font-style="normal" font-weight="normal" fill="#293845" x="-602" y="-313" height="24" xmlns:xml="http://www.w3.org/XML/1998/namespace" xml:space="preserve" width="66"><tspan style="white-space:pre;" text-anchor="start" x="-602" y="-295">Browser</tspan></text></g></g></g><g><g class="mindmap"><path fill="none" stroke="#2c88d9" stroke-linecap="round" stroke-linejoin="round" stroke-width="4" d="M -431 -229 h -10 c -40 0 -36 24 -76 24 h -10" /><g><text font-family="DIN Next" font-size="18px" font-style="normal" font-weight="normal" fill="#293845" x="-602" y="-217" height="24" xmlns:xml="http://www.w3.org/XML/1998/namespace" xml:space="preserve" width="66"><tspan style="white-space:pre;" text-anchor="start" x="-602" y="-199">Máquina</tspan></text></g></g><g><g><g class="mindmap"><path fill="none" stroke="#2c88d9" stroke-linecap="round" stroke-linejoin="round" stroke-width="4" d="M -611 -205 h -10 c -40 0 -36 -48 -76 -48 h -10" /><g><text font-family="DIN Next" font-size="18px" font-style="normal" font-weight="normal" fill="#293845" x="-795" y="-265" height="24" xmlns:xml="http://www.w3.org/XML/1998/namespace" xml:space="preserve" width="79"><tspan style="white-space:pre;" text-anchor="start" x="-795" y="-247">Ryan Dahl</tspan></text></g></g></g><g><g class="mindmap"><path fill="none" stroke="#2c88d9" stroke-linecap="round" stroke-linejoin="round" stroke-width="4" d="M -611 -205 h -10 c -40 0 -36 0 -76 0 h -10" /><g><text font-family="DIN Next" font-size="18px" font-style="normal" font-weight="normal" fill="#293845" x="-802" y="-217" height="24" xmlns:xml="http://www.w3.org/XML/1998/namespace" xml:space="preserve" width="86"><tspan style="white-space:pre;" text-anchor="start" x="-802" y="-199">V8 &lt;- Node</tspan></text></g></g></g><g><g class="mindmap"><path fill="none" stroke="#2c88d9" stroke-linecap="round" stroke-linejoin="round" stroke-width="4" d="M -611 -205 h -10 c -40 0 -36 48 -76 48 h -10" /><g><text font-family="DIN Next" font-size="18px" font-style="normal" font-weight="normal" fill="#293845" x="-800" y="-169" height="24" xmlns:xml="http://www.w3.org/XML/1998/namespace" xml:space="preserve" width="84"><tspan style="white-space:pre;" text-anchor="start" x="-800" y="-151">!= browser</tspan></text></g></g></g></g></g></g></g><g><g class="mindmap"><path fill="none" stroke="#2c88d9" stroke-linecap="round" stroke-linejoin="round" stroke-width="4" d="M -233 -205 h -10 c -40 0 -36 168 -76 168 h -10" /><g><text font-family="DIN Next" font-size="18px" font-style="normal" font-weight="normal" fill="#293845" x="-393" y="-49" height="24" xmlns:xml="http://www.w3.org/XML/1998/namespace" xml:space="preserve" width="55"><tspan style="white-space:pre;" text-anchor="start" x="-393" y="-31">Garçon</tspan></text></g></g><g><g><g class="mindmap"><path fill="none" stroke="#2c88d9" stroke-linecap="round" stroke-linejoin="round" stroke-width="4" d="M -402 -37 h -10 c -40 0 -36 -24 -76 -24 h -10" /><g><text font-family="DIN Next" font-size="18px" font-style="normal" font-weight="normal" fill="#293845" x="-665" y="-73" height="24" xmlns:xml="http://www.w3.org/XML/1998/namespace" xml:space="preserve" width="158"><tspan style="white-space:pre;" text-anchor="start" x="-665" y="-55">Async/Non-blocking</tspan></text></g></g><g><g><g class="mindmap"><path fill="none" stroke="#2c88d9" stroke-linecap="round" stroke-linejoin="round" stroke-width="4" d="M -674 -61 h -10 c -40 0 -36 -48 -76 -48 h -10" /><g><text font-family="DIN Next" font-size="18px" font-style="normal" font-weight="normal" fill="#293845" x="-911" y="-121" height="24" xmlns:xml="http://www.w3.org/XML/1998/namespace" xml:space="preserve" width="132"><tspan style="white-space:pre;" text-anchor="start" x="-911" y="-103">Handle Requests</tspan></text></g></g></g><g><g class="mindmap"><path fill="none" stroke="#2c88d9" stroke-linecap="round" stroke-linejoin="round" stroke-width="4" d="M -674 -61 h -10 c -40 0 -36 0 -76 0 h -10" /><g><text font-family="DIN Next" font-size="18px" font-style="normal" font-weight="normal" fill="#293845" x="-887" y="-73" height="24" xmlns:xml="http://www.w3.org/XML/1998/namespace" xml:space="preserve" width="108"><tspan style="white-space:pre;" text-anchor="start" x="-887" y="-55">Single Thread</tspan></text></g></g></g><g><g class="mindmap"><path fill="none" stroke="#2c88d9" stroke-linecap="round" stroke-linejoin="round" stroke-width="4" d="M -674 -61 h -10 c -40 0 -36 48 -76 48 h -10" /><g><text font-family="DIN Next" font-size="18px" font-style="normal" font-weight="normal" fill="#293845" x="-887" y="-25" height="24" xmlns:xml="http://www.w3.org/XML/1998/namespace" xml:space="preserve" width="108"><tspan style="white-space:pre;" text-anchor="start" x="-887" y="-7">♥️Event Loop</tspan></text></g></g></g></g></g><g><g class="mindmap"><path fill="none" stroke="#2c88d9" stroke-linecap="round" stroke-linejoin="round" stroke-width="4" d="M -402 -37 h -10 c -40 0 -36 72 -76 72 h -10" /><g><text font-family="DIN Next" font-size="18px" font-style="normal" font-weight="normal" fill="#293845" x="-619" y="23" height="24" xmlns:xml="http://www.w3.org/XML/1998/namespace" xml:space="preserve" width="112"><tspan style="white-space:pre;" text-anchor="start" x="-619" y="41">Sync/Blocking</tspan></text></g></g><g><g><g class="mindmap"><path fill="none" stroke="#2c88d9" stroke-linecap="round" stroke-linejoin="round" stroke-width="4" d="M -628 35 h -10 c -40 0 -36 0 -76 0 h -10" /><g><text font-family="DIN Next" font-size="18px" font-style="normal" font-weight="normal" fill="#293845" x="-779" y="23" height="24" xmlns:xml="http://www.w3.org/XML/1998/namespace" xml:space="preserve" width="46"><tspan style="white-space:pre;" text-anchor="start" x="-779" y="41">wait...</tspan></text></g></g></g></g></g></g></g></g></g><g><g class="mindmap"><path fill="none" stroke="#1aae9f" stroke-linecap="round" stroke-linejoin="round" stroke-width="4" d="M 58.9409 29 c -40.2607 65.5056 -42.4917 234 -106.941 234" /><g><text font-family="DIN Next" font-size="21px" font-style="normal" font-weight="normal" fill="#293845" x="-224" y="249" height="28" xmlns:xml="http://www.w3.org/XML/1998/namespace" xml:space="preserve" width="167"><tspan style="white-space:pre;" text-anchor="start" x="-224" y="270">🔨 Module System</tspan></text></g></g><g><g><g class="mindmap"><path fill="none" stroke="#1aae9f" stroke-linecap="round" stroke-linejoin="round" stroke-width="4" d="M -233 263 h -10 c -40 0 -36 -168 -76 -168 h -10" /><g><text font-family="DIN Next" font-size="18px" font-style="normal" font-weight="normal" fill="#293845" x="-568" y="83" height="24" xmlns:xml="http://www.w3.org/XML/1998/namespace" xml:space="preserve" width="230"><tspan style="white-space:pre;" text-anchor="start" x="-568" y="101">Common JS (require/exports)</tspan></text></g></g></g><g><g class="mindmap"><path fill="none" stroke="#1aae9f" stroke-linecap="round" stroke-linejoin="round" stroke-width="4" d="M -233 263 h -10 c -40 0 -36 -120 -76 -120 h -10" /><g><text font-family="DIN Next" font-size="18px" font-style="normal" font-weight="normal" fill="#293845" x="-357" y="131" height="24" xmlns:xml="http://www.w3.org/XML/1998/namespace" xml:space="preserve" width="19"><tspan style="white-space:pre;" text-anchor="start" x="-357" y="149">os</tspan></text></g></g></g><g><g class="mindmap"><path fill="none" stroke="#1aae9f" stroke-linecap="round" stroke-linejoin="round" stroke-width="4" d="M -233 263 h -10 c -40 0 -36 -72 -76 -72 h -10" /><g><text font-family="DIN Next" font-size="18px" font-style="normal" font-weight="normal" fill="#293845" x="-484" y="179" height="24" xmlns:xml="http://www.w3.org/XML/1998/namespace" xml:space="preserve" width="146"><tspan style="white-space:pre;" text-anchor="start" x="-484" y="197">setInterval (global)</tspan></text></g></g></g><g><g class="mindmap"><path fill="none" stroke="#1aae9f" stroke-linecap="round" stroke-linejoin="round" stroke-width="4" d="M -233 263 h -10 c -40 0 -36 -24 -76 -24 h -10" /><g><text font-family="DIN Next" font-size="18px" font-style="normal" font-weight="normal" fill="#293845" x="-390" y="227" height="24" xmlns:xml="http://www.w3.org/XML/1998/namespace" xml:space="preserve" width="52"><tspan style="white-space:pre;" text-anchor="start" x="-390" y="245">events</tspan></text></g></g></g><g><g class="mindmap"><path fill="none" stroke="#1aae9f" stroke-linecap="round" stroke-linejoin="round" stroke-width="4" d="M -233 263 h -10 c -40 0 -36 24 -76 24 h -10" /><g><text font-family="DIN Next" font-size="18px" font-style="normal" font-weight="normal" fill="#293845" x="-353" y="275" height="24" xmlns:xml="http://www.w3.org/XML/1998/namespace" xml:space="preserve" width="15"><tspan style="white-space:pre;" text-anchor="start" x="-353" y="293">fs</tspan></text></g></g></g><g><g class="mindmap"><path fill="none" stroke="#1aae9f" stroke-linecap="round" stroke-linejoin="round" stroke-width="4" d="M -233 263 h -10 c -40 0 -36 72 -76 72 h -10" /><g><text font-family="DIN Next" font-size="18px" font-style="normal" font-weight="normal" fill="#293845" x="-373" y="323" height="24" xmlns:xml="http://www.w3.org/XML/1998/namespace" xml:space="preserve" width="35"><tspan style="white-space:pre;" text-anchor="start" x="-373" y="341">path</tspan></text></g></g></g><g><g class="mindmap"><path fill="none" stroke="#1aae9f" stroke-linecap="round" stroke-linejoin="round" stroke-width="4" d="M -233 263 h -10 c -40 0 -36 120 -76 120 h -10" /><g><text font-family="DIN Next" font-size="18px" font-style="normal" font-weight="normal" fill="#293845" x="-369" y="371" height="24" xmlns:xml="http://www.w3.org/XML/1998/namespace" xml:space="preserve" width="31"><tspan style="white-space:pre;" text-anchor="start" x="-369" y="389">http</tspan></text></g></g></g><g><g class="mindmap"><path fill="none" stroke="#1aae9f" stroke-linecap="round" stroke-linejoin="round" stroke-width="4" d="M -233 263 h -10 c -40 0 -36 168 -76 168 h -10" /><g><text font-family="DIN Next" font-size="18px" font-style="normal" font-weight="normal" fill="#293845" x="-361" y="419" height="24" xmlns:xml="http://www.w3.org/XML/1998/namespace" xml:space="preserve" width="23"><tspan style="white-space:pre;" text-anchor="start" x="-361" y="437">url</tspan></text></g></g></g></g></g></g><g><rect fill="#ffffff" x="48" y="-43" width="127" height="72" rx="6" ry="6" /><g><text font-family="DIN Next" font-size="27px" font-style="normal" font-weight="normal" fill="#293845" x="68" y="-25" height="36" xmlns:xml="http://www.w3.org/XML/1998/namespace" xml:space="preserve" width="87"><tspan style="white-space:pre;" text-anchor="start" x="68" y="2">Node.js</tspan></text></g></g></g><g><g><text font-family="DIN Next" font-size="18px" font-style="normal" font-weight="normal" fill="#293845" x="-158" y="-493" height="96" xmlns:xml="http://www.w3.org/XML/1998/namespace" xml:space="preserve" width="540"><tspan style="white-space:pre;" text-anchor="start" x="-158" y="-475">O que preciso saber para usar o Node.js (nessa aula)?</tspan><tspan style="white-space:pre;" text-anchor="start" x="-158" y="-451" /><tspan style="white-space:pre;" text-anchor="start" x="-158" y="-427">- Fundamentos de JavaScript (objetos, vetores, condicionais, funções)</tspan><tspan style="white-space:pre;" text-anchor="start" x="-158" y="-403">- HTTP, JSON, Callbacks, Promises, Arrow Functions, ES6 </tspan></text></g></g><g><g><rect fill="#ffffff" x="-1136" y="-94" width="216" height="141" rx="3" ry="3" /><svg class="image" viewBox="0 0 664 415" x="-1128" y="-86" width="200" height="125"><image x="0" y="0" width="664" height="415" xlink:href="https://whimuc.com/YVXn2fCCy7h8WRu7Z2BneP/4UgV5U5Rg2pVZT.png" /></svg></g></g></svg>